<svg xmlns="http://www.w3.org/2000/svg" xmlns:xlink="http://www.w3.org/1999/xlink" width="500" zoomAndPan="magnify" viewBox="0 0 375 374.999991" height="500" preserveAspectRatio="xMidYMid meet" version="1.0"><defs><clipPath id="f6cb4a396f"><path d="M 71.191406 58.761719 L 303.808594 58.761719 L 303.808594 299.273438 L 71.191406 299.273438 Z M 71.191406 58.761719 " clip-rule="nonzero"/></clipPath><clipPath id="1c1ce11eb4"><path d="M 126.65625 112.5 L 248.15625 112.5 L 248.15625 262.5 L 126.65625 262.5 Z M 126.65625 112.5 " clip-rule="nonzero"/></clipPath></defs><g clip-path="url(#f6cb4a396f)"><path fill="#00bf63" d="M 71.191406 58.761719 L 303.222656 58.761719 L 303.222656 299.582031 L 71.191406 299.582031 Z M 71.191406 58.761719 " fill-opacity="1" fill-rule="nonzero"/></g><g clip-path="url(#1c1ce11eb4)"><path fill="#3edd2b" d="M 234.902344 112.59375 L 139.910156 112.59375 C 132.605469 112.59375 126.660156 119.15625 126.660156 127.226562 L 126.660156 253.644531 C 126.660156 255.480469 127.109375 257.285156 127.960938 258.863281 C 128.980469 260.746094 130.808594 261.996094 132.855469 262.207031 C 134.894531 262.414062 136.914062 261.570312 138.273438 259.953125 L 184.804688 204.496094 C 185.53125 203.628906 186.457031 203.152344 187.40625 203.152344 C 188.355469 203.152344 189.277344 203.628906 190.003906 204.496094 L 236.539062 259.953125 C 237.761719 261.410156 239.523438 262.238281 241.34375 262.238281 C 241.546875 262.238281 241.75 262.226562 241.953125 262.207031 C 244 261.996094 245.832031 260.746094 246.847656 258.863281 C 247.699219 257.285156 248.148438 255.480469 248.148438 253.644531 L 248.148438 127.226562 C 248.152344 119.15625 242.207031 112.59375 234.902344 112.59375 Z M 234.902344 112.59375 " fill-opacity="1" fill-rule="nonzero"/></g></svg>